<?xml version="1.0" encoding="UTF-8"?>
<svg id="Layer_1" data-name="Layer 1" xmlns="http://www.w3.org/2000/svg" viewBox="170 425 740 235">
  <defs>
    <style>
      .cls-1 {
        fill: #333;
      }

      .cls-1, .cls-2 {
        stroke-width: 0px;
      }

      .cls-3 {
        opacity: .6;
      }

      .cls-4 {
        opacity: .5;
      }

      .cls-5 {
        opacity: .7;
      }

      .cls-2 {
        fill: #8dc63f;
      }
    </style>
  </defs>
  <circle class="cls-1" cx="335.309" cy="477.3123" r="14.1457"/>
  <path class="cls-1" d="M335.3086,498.0559c-11.4375,0-20.7432-9.3057-20.7432-20.7437s9.3057-20.7437,20.7432-20.7437,20.7441,9.3057,20.7441,20.7437-9.3057,20.7437-20.7441,20.7437ZM335.3086,457.762c-10.7793,0-19.5498,8.7705-19.5498,19.5503s8.7705,19.5503,19.5498,19.5503,19.5508-8.7705,19.5508-19.5503-8.7705-19.5503-19.5508-19.5503Z"/>
  <g class="cls-5">
    <path class="cls-1" d="M335.3086,504.8938c-15.209,0-27.582-12.373-27.582-27.5815s12.373-27.5815,27.582-27.5815,27.582,12.373,27.582,27.5815-12.373,27.5815-27.582,27.5815ZM335.3086,450.7551c-14.6436,0-26.5566,11.9136-26.5566,26.5571s11.9131,26.5571,26.5566,26.5571,26.5566-11.9136,26.5566-26.5571-11.9131-26.5571-26.5566-26.5571Z"/>
  </g>
  <g class="cls-3">
    <path class="cls-1" d="M335.3086,512.7132c-19.5195,0-35.4004-15.8809-35.4004-35.4009s15.8809-35.4009,35.4004-35.4009,35.4014,15.8809,35.4014,35.4009-15.8809,35.4009-35.4014,35.4009ZM335.3086,442.6809c-19.0957,0-34.6309,15.5356-34.6309,34.6313s15.5352,34.6313,34.6309,34.6313,34.6318-15.5356,34.6318-34.6313-15.5361-34.6313-34.6318-34.6313Z"/>
  </g>
  <g class="cls-4">
    <path class="cls-1" d="M335.3086,520.489c-23.8066,0-43.1758-19.3691-43.1758-43.1768s19.3691-43.1763,43.1758-43.1763,43.1768,19.3691,43.1768,43.1763-19.3691,43.1768-43.1768,43.1768ZM335.3086,434.5637c-23.5713,0-42.748,19.1768-42.748,42.7485s19.1768,42.749,42.748,42.749,42.749-19.1768,42.749-42.749-19.1768-42.7485-42.749-42.7485Z"/>
  </g>
  <rect class="cls-1" x="291.2723" y="573.3936" width="71.4324" height="71.4324"/>
  <g>
    <path class="cls-1" d="M398.5231,632.5164h-7.4826v4.7187h5.6267v1.3819h-5.6267v4.9555h7.4826v1.3819h-9.0618v-13.82h9.0618v1.3819Z"/>
    <path class="cls-1" d="M413.2317,631.1345v13.82h-1.5994l-7.3839-11.2929v11.2929h-1.5792v-13.82h1.5989l7.3839,11.2732v-11.2732h1.5796Z"/>
    <path class="cls-1" d="M423.0835,632.5164h-.6515l-4.5605,12.4381h-1.5994l5.0541-13.82h2.8432l5.0344,13.82h-1.5994l-4.521-12.4381ZM418.7401,639.9398h8.0552v1.3819h-8.0552v-1.3819Z"/>
    <path class="cls-1" d="M432.2246,644.9544v-13.82h5.6267c.9738,0,1.7769.1652,2.4087.4941s1.102.7596,1.4115,1.2931c.3091.5327.4641,1.1221.4641,1.7667,0,.6322-.1155,1.1616-.3457,1.5891-.2306.4283-.5397.767-.9277,1.0169-.3884.2499-.813.4217-1.2734.5138v.1381c.5524.0789,1.0461.2532,1.4806.5228s.7765.6355,1.0268,1.0958c.2495.4612.3749,1.0202.3749,1.6779,0,.6848-.171,1.3104-.5134,1.876-.3424.5656-.8459,1.0136-1.5102,1.3425-.6647.3288-1.4777.4932-2.4383.4932h-5.7846ZM440.5757,634.8856c0-.7234-.2405-1.2997-.7206-1.7272-.4805-.4275-1.1945-.642-2.1419-.642h-3.9094v4.7187h3.9686c.8948,0,1.5858-.2105,2.0729-.6314.4867-.4217.7304-.9939.7304-1.7181ZM433.8039,643.5725h4.087c.9474,0,1.6881-.2137,2.2208-.6412.5331-.4275.7999-1.0432.7999-1.8464,0-.8024-.2799-1.4148-.8393-1.8357-.5594-.4217-1.3063-.6322-2.2406-.6322h-4.0278v4.9555Z"/>
    <path class="cls-1" d="M448.0189,631.1345v12.4381h6.4562v1.3819h-8.0354v-13.82h1.5792Z"/>
    <path class="cls-1" d="M457.8904,631.1345h1.5792v13.82h-1.5792v-13.82Z"/>
    <path class="cls-1" d="M474.5733,631.1345v13.82h-1.5994l-7.3839-11.2929v11.2929h-1.5792v-13.82h1.5989l7.3839,11.2732v-11.2732h1.5796Z"/>
    <path class="cls-1" d="M489.933,635.2802c-.5002-.9865-1.1649-1.714-1.994-2.181-.8291-.4669-1.7506-.7012-2.7642-.7012-1.0001,0-1.9019.2302-2.7046.6914-.8028.4604-1.4345,1.1123-1.8953,1.9541-.4608.8426-.691,1.8431-.691,3.0014,0,1.1452.2302,2.1391.691,2.9809.4608.8426,1.0925,1.4937,1.8953,1.9549.8028.4604,1.7046.6905,2.7046.6905.7506,0,1.4481-.1282,2.093-.3847.6445-.2565,1.2043-.6248,1.6779-1.1057.4739-.4801.8361-1.0564,1.086-1.7272v-1.5998h-4.7381v-1.2833h6.3374v2.962c-.3029.8821-.7637,1.6647-1.3819,2.3495-.619.684-1.3626,1.2241-2.2311,1.6187-.8685.3946-1.8164.5919-2.8432.5919-.9742,0-1.8789-.171-2.7145-.513-.8361-.342-1.5665-.8262-2.1913-1.451-.6256-.6248-1.1127-1.3688-1.4612-2.2311-.349-.8615-.5233-1.8127-.5233-2.8526s.1743-1.9911.5233-2.8534c.3486-.8615.8356-1.6055,1.4612-2.2303.6248-.6256,1.3552-1.109,2.1913-1.4518.8356-.342,1.7403-.513,2.7145-.513.9084,0,1.7605.148,2.5571.4439.7962.2968,1.5032.7243,2.1222,1.2833.6186.5598,1.1057,1.2413,1.4608,2.0437l-1.3819.513Z"/>
    <path class="cls-1" d="M501.3838,631.1345h10.3652v1.3819h-4.3829v12.4381h-1.5796v-12.4381h-4.4027v-1.3819Z"/>
    <path class="cls-1" d="M515.441,631.1345h1.5792v6.1007h7.4037v-6.1007h1.5796v13.82h-1.5796v-6.3374h-7.4037v6.3374h-1.5792v-13.82Z"/>
    <path class="cls-1" d="M539.6064,632.5164h-7.4826v4.7187h5.6267v1.3819h-5.6267v4.9555h7.4826v1.3819h-9.0618v-13.82h9.0618v1.3819Z"/>
    <path class="cls-1" d="M559.5271,632.5164h-7.4826v4.7187h5.6267v1.3819h-5.6267v4.9555h7.4826v1.3819h-9.0618v-13.82h9.0618v1.3819Z"/>
    <path class="cls-1" d="M574.2357,631.1345v13.82h-1.5998l-7.3835-11.2929v11.2929h-1.5792v-13.82h1.5989l7.3835,11.2732v-11.2732h1.58Z"/>
    <path class="cls-1" d="M587.8379,632.5164h-7.4826v4.7187h5.6271v1.3819h-5.6271v4.9555h7.4826v1.3819h-9.0618v-13.82h9.0618v1.3819Z"/>
    <path class="cls-1" d="M596.8413,631.1345c1.0794,0,1.9648.185,2.6553.5533.6914.3683,1.2076.8583,1.5496,1.4707.3428.6116.5138,1.2997.5138,2.0626,0,.5401-.0888,1.0539-.2664,1.5406-.1784.4867-.4579.9216-.8393,1.303-.3823.3814-.8689.684-1.4608.9076-.5927.2244-1.303.3362-2.1325.3362h-3.2974v5.646h-1.5792v-13.82h4.8569ZM599.9611,635.221c0-.8287-.2442-1.4871-.7308-1.9738-.4875-.4867-1.2833-.7308-2.389-.7308h-3.2776v5.4101h3.2974c.7234,0,1.3129-.1118,1.7667-.3362.4546-.2236.79-.5393,1.007-.947.217-.4086.3264-.8821.3264-1.4222ZM597.9864,638.7157l3.8301,6.2388h-1.7962l-3.7314-6.2388h1.6976Z"/>
    <path class="cls-1" d="M616.3271,635.2802c-.4998-.9865-1.1649-1.714-1.9935-2.181-.8295-.4669-1.751-.7012-2.7647-.7012-.9996,0-1.9015.2302-2.7046.6914-.8024.4604-1.4345,1.1123-1.8949,1.9541-.4612.8426-.6914,1.8431-.6914,3.0014,0,1.1452.2302,2.1391.6914,2.9809.4604.8426,1.0925,1.4937,1.8949,1.9549.8032.4604,1.705.6905,2.7046.6905.7506,0,1.4485-.1282,2.093-.3847.6445-.2565,1.2043-.6248,1.6779-1.1057.4743-.4801.8361-1.0564,1.086-1.7272v-1.5998h-4.7376v-1.2833h6.3374v2.962c-.3033.8821-.7637,1.6647-1.3819,2.3495-.619.684-1.363,1.2241-2.2311,1.6187-.8689.3946-1.8168.5919-2.8436.5919-.9742,0-1.8785-.171-2.7145-.513-.8361-.342-1.5661-.8262-2.1908-1.451-.6256-.6248-1.1131-1.3688-1.4617-2.2311-.3486-.8615-.5228-1.8127-.5228-2.8526s.1743-1.9911.5228-2.8534c.3486-.8615.8361-1.6055,1.4617-2.2303.6248-.6256,1.3548-1.109,2.1908-1.4518.8361-.342,1.7403-.513,2.7145-.513.9084,0,1.7609.148,2.5575.4439.7958.2968,1.5028.7243,2.1218,1.2833.619.5598,1.1057,1.2413,1.4608,2.0437l-1.3819.513Z"/>
    <path class="cls-1" d="M630.1084,631.1345h1.7568l-5.0541,8.5094v5.3106h-1.5792v-5.2909l-5.0541-8.5291h1.7568l4.0866,7.0091,4.0874-7.0091Z"/>
    <path class="cls-1" d="M641.1835,631.1345h10.3656v1.3819h-4.3833v12.4381h-1.5792v-12.4381h-4.4031v-1.3819Z"/>
    <path class="cls-1" d="M660.0979,631.1345c1.0786,0,1.9639.185,2.6553.5533.6905.3683,1.2068.8583,1.5496,1.4707.342.6116.513,1.2997.513,2.0626,0,.5401-.0888,1.0539-.2664,1.5406-.1776.4867-.4571.9216-.8393,1.303-.3814.3814-.8681.684-1.4608.9076-.5919.2244-1.303.3362-2.1317.3362h-3.2974v5.646h-1.5792v-13.82h4.8569ZM663.2169,635.221c0-.8287-.2433-1.4871-.7308-1.9738-.4867-.4867-1.2833-.7308-2.3881-.7308h-3.2776v5.4101h3.2974c.7234,0,1.3129-.1118,1.7667-.3362.4538-.2236.79-.5393,1.007-.947.217-.4086.3255-.8821.3255-1.4222ZM661.2422,638.7157l3.8301,6.2388h-1.7962l-3.7314-6.2388h1.6976Z"/>
    <path class="cls-1" d="M674.0757,632.5164h-.6519l-4.5601,12.4381h-1.5998l5.0541-13.82h2.8436l5.0344,13.82h-1.5998l-4.5206-12.4381ZM669.7319,639.9398h8.0556v1.3819h-8.0556v-1.3819Z"/>
    <path class="cls-1" d="M693.7793,631.1345v13.82h-1.5989l-7.3847-11.2929v11.2929h-1.5792v-13.82h1.5989l7.3847,11.2732v-11.2732h1.5792Z"/>
    <path class="cls-1" d="M699.09,641.4401c.0789.356.2466.7078.5031,1.0564.2573.3494.6124.6388,1.0662.8689.4546.2302,1.0366.3453,1.7477.3453,1.0128,0,1.7634-.2368,2.25-.7103.4875-.4743.7308-1.0334.7308-1.6787,0-.513-.1381-.9339-.4143-1.2635-.277-.3288-.6519-.6018-1.1254-.8188-.4743-.2179-1.007-.4119-1.5989-.5829-.527-.1447-1.0498-.3058-1.5702-.4834-.5196-.1776-.9906-.4012-1.4115-.6716-.4209-.2696-.7571-.6215-1.007-1.0564-.2499-.4341-.3749-.9733-.3749-1.6187,0-.776.1841-1.451.5524-2.024.3683-.5722.8887-1.0161,1.5603-1.3326.6708-.3157,1.4543-.4735,2.3495-.4735.776,0,1.4543.1118,2.033.3354.5796.2244,1.0629.5368,1.451.938.388.402.6749.8657.8591,1.3918l-1.4016.5335c-.0921-.3033-.2696-.596-.5327-.8788-.2639-.2828-.6059-.5163-1.0268-.7012-.4217-.1841-.9018-.2762-1.4411-.2762-.527,0-1.0046.0921-1.4321.2762-.4275.185-.7662.448-1.0161.79-.2507.342-.3757.7571-.3757,1.2438,0,.527.148.9446.4447,1.2537.2959.3091.6905.5598,1.1846.7506.4932.1907,1.0358.3716,1.6285.5426.5393.171,1.0629.3551,1.5694.5524.5064.1981.961.4415,1.3622.7308s.721.6519.9577,1.086.3551.9676.3551,1.5989c0,.6979-.1644,1.3457-.4932,1.945-.3288.5985-.8262,1.0794-1.4904,1.4411-.6651.3617-1.5176.5426-2.5567.5426-.8689,0-1.6327-.1348-2.2903-.4045-.6585-.2696-1.1978-.6346-1.6187-1.0958-.4217-.4604-.7111-.9873-.8689-1.5792l1.4411-.573Z"/>
    <path class="cls-1" d="M710.8367,631.1345h1.58v13.82h-1.58v-13.82Z"/>
    <path class="cls-1" d="M716.1284,631.1345h10.3648v1.3819h-4.3833v12.4381h-1.5792v-12.4381h-4.4022v-1.3819Z"/>
    <path class="cls-1" d="M730.1852,631.1345h1.58v13.82h-1.58v-13.82Z"/>
    <path class="cls-1" d="M742.3668,645.0926c-.9742,0-1.8785-.171-2.7145-.513-.8361-.342-1.5661-.8262-2.1917-1.451-.6248-.6248-1.1123-1.3688-1.4608-2.2311-.3486-.8615-.5228-1.8127-.5228-2.8526s.1743-1.9911.5228-2.8534c.3486-.8615.8361-1.6055,1.4608-2.2303.6256-.6256,1.3556-1.109,2.1917-1.4518.8361-.342,1.7403-.513,2.7145-.513.961,0,1.8587.171,2.6948.513.8361.3428,1.5628.8262,2.1818,1.4518.619.6248,1.1024,1.3688,1.451,2.2303.3486.8624.5237,1.8135.5237,2.8534s-.1751,1.9911-.5237,2.8526c-.3486.8624-.8319,1.6063-1.451,2.2311-.619.6248-1.3457,1.109-2.1818,1.451-.8361.342-1.7338.513-2.6948.513ZM742.3668,643.7106c.9873,0,1.876-.2302,2.6652-.6905.79-.4612,1.4148-1.1156,1.876-1.9648.4604-.8492.6905-1.8521.6905-3.0105,0-1.1715-.2302-2.1818-.6905-3.031-.4612-.8484-1.086-1.5003-1.876-1.9541-.7892-.4546-1.6779-.6815-2.6652-.6815-1.0005,0-1.8982.2269-2.6948.6815-.7966.4538-1.4247,1.1057-1.885,1.9541-.4612.8492-.6914,1.8595-.6914,3.031,0,1.1583.2302,2.1612.6914,3.0105.4604.8492,1.0884,1.5036,1.885,1.9648.7966.4604,1.6943.6905,2.6948.6905Z"/>
    <path class="cls-1" d="M763.472,631.1345v13.82h-1.5989l-7.3839-11.2929v11.2929h-1.58v-13.82h1.5998l7.3839,11.2732v-11.2732h1.5792Z"/>
    <path class="cls-1" d="M774.1336,638.7946h10.3253v1.3227h-10.3253v-1.3227Z"/>
    <path class="cls-1" d="M795.1394,644.9544v-13.82h5.6271c.9742,0,1.7765.1652,2.4087.4941.6314.3288,1.1024.7596,1.4115,1.2931.3091.5327.4637,1.1221.4637,1.7667,0,.6322-.1151,1.1616-.3453,1.5891-.2302.4283-.5401.767-.9281,1.0169s-.8122.4217-1.2734.5138v.1381c.5533.0789,1.0465.2532,1.4806.5228.4349.2696.7769.6355,1.0268,1.0958.2499.4612.3757,1.0202.3757,1.6779,0,.6848-.1718,1.3104-.5138,1.876-.342.5656-.8459,1.0136-1.5102,1.3425-.6651.3288-1.4773.4932-2.4383.4932h-5.785ZM803.4909,634.8856c0-.7234-.24-1.2997-.721-1.7272-.4801-.4275-1.1937-.642-2.1415-.642h-3.909v4.7187h3.9682c.8944,0,1.5858-.2105,2.0725-.6314.4875-.4217.7308-.9939.7308-1.7181ZM796.7194,643.5725h4.0866c.9479,0,1.6877-.2137,2.2213-.6412.5327-.4275.7991-1.0432.7991-1.8464,0-.8024-.2795-1.4148-.8385-1.8357-.5598-.4217-1.3071-.6322-2.241-.6322h-4.0274v4.9555Z"/>
    <path class="cls-1" d="M809.354,631.1345h1.58v13.82h-1.58v-13.82Z"/>
    <path class="cls-1" d="M814.6457,631.1345h10.3648v1.3819h-4.3833v12.4381h-1.5792v-12.4381h-4.4022v-1.3819Z"/>
    <path class="cls-1" d="M835.4147,644.9544v-13.82h5.6271c.9742,0,1.7765.1652,2.4087.4941.6314.3288,1.1024.7596,1.4115,1.2931.3091.5327.4637,1.1221.4637,1.7667,0,.6322-.1151,1.1616-.3453,1.5891-.2302.4283-.5401.767-.9281,1.0169s-.8122.4217-1.2734.5138v.1381c.5533.0789,1.0465.2532,1.4806.5228.4349.2696.7769.6355,1.0268,1.0958.2499.4612.3757,1.0202.3757,1.6779,0,.6848-.1718,1.3104-.5138,1.876s-.8459,1.0136-1.5102,1.3425c-.6651.3288-1.4773.4932-2.4383.4932h-5.785ZM843.7662,634.8856c0-.7234-.24-1.2997-.721-1.7272-.4801-.4275-1.1937-.642-2.1415-.642h-3.909v4.7187h3.9682c.8944,0,1.5858-.2105,2.0725-.6314.4875-.4217.7308-.9939.7308-1.7181ZM836.9948,643.5725h4.0866c.9479,0,1.6877-.2137,2.2213-.6412.5327-.4275.7991-1.0432.7991-1.8464,0-.8024-.2795-1.4148-.8385-1.8357-.5598-.4217-1.3071-.6322-2.241-.6322h-4.0274v4.9555Z"/>
    <path class="cls-1" d="M858.4354,631.1345h1.7576l-5.0541,8.5094v5.3106h-1.5792v-5.2909l-5.055-8.5291h1.7576l4.0866,7.0091,4.0866-7.0091Z"/>
    <path class="cls-1" d="M870.34,644.9544v-13.82h5.6271c.9742,0,1.7765.1652,2.4087.4941.6314.3288,1.1024.7596,1.4115,1.2931.3091.5327.4637,1.1221.4637,1.7667,0,.6322-.1151,1.1616-.3453,1.5891-.2302.4283-.5401.767-.9281,1.0169s-.8122.4217-1.2734.5138v.1381c.5533.0789,1.0465.2532,1.4806.5228.4349.2696.7769.6355,1.0268,1.0958.2499.4612.3757,1.0202.3757,1.6779,0,.6848-.1718,1.3104-.5138,1.876-.342.5656-.8459,1.0136-1.5102,1.3425-.6651.3288-1.4773.4932-2.4383.4932h-5.785ZM878.6915,634.8856c0-.7234-.24-1.2997-.721-1.7272-.4801-.4275-1.1937-.642-2.1415-.642h-3.909v4.7187h3.9682c.8944,0,1.5858-.2105,2.0725-.6314.4875-.4217.7308-.9939.7308-1.7181ZM871.92,643.5725h4.0866c.9479,0,1.6877-.2137,2.2213-.6412.5327-.4275.7991-1.0432.7991-1.8464,0-.8024-.2795-1.4148-.8385-1.8357-.5598-.4217-1.3071-.6322-2.241-.6322h-4.0274v4.9555Z"/>
    <path class="cls-1" d="M884.5554,631.1345h1.58v13.82h-1.58v-13.82Z"/>
    <path class="cls-1" d="M889.8471,631.1345h10.3648v1.3819h-4.3833v12.4381h-1.5792v-12.4381h-4.4022v-1.3819Z"/>
  </g>
  <path class="cls-2" d="M324.7568,639.6082c-4.1035.001-8.9355-7.2754-16.4512-60.0112-1.6348-11.4648-2.9561-21.4297-4.1221-30.2217-2.9785-22.4546-5.3301-40.1899-7.9707-40.3467-.0127-.001-.0264-.001-.0391-.001-2.6016,0-7.4736,15.2153-10.3906,24.3257l-.0957.2979c-1.8838,5.8838-3.123,10.7188-4.2168,14.9844-2.4443,9.5371-3.9189,15.2935-9.5156,19.1411-4.6406,3.1909-10.8486,4.1279-18.4502,2.7852l.4258-2.4072c6.9463,1.2266,12.5459.4224,16.6396-2.3926,4.8408-3.3281,6.1523-8.4448,8.5322-17.7334,1.0479-4.0854,2.3506-9.1704,4.2568-15.123l.0957-.2979c5.375-16.7881,8.6592-26.2837,12.9023-26.0195,4.4561.2642,5.9062,9.7173,10.25,42.4658,1.165,8.7861,2.4854,18.7446,4.1182,30.1982,2.5068,17.5884,4.7822,30.7197,6.9561,40.145,3.9014,16.9131,6.5791,17.7671,7.0762,17.7666,3.2637-.0034,7.918-18.4868,10.418-28.4165,4.0791-16.2012,5.624-21.3945,8.4795-21.0195,2.0625.2793,3.2285,3.5542,6.0332,12.8413,1.5928,5.2734,3.3984,11.25,5.2607,14.4126.5771.979,2.1094,3.5786,5.0781,4.9111.6348.2856,1.3057.5005,1.9922.6387.165.0181.4268.0356.6514.0283.4297-.0059,216.5186-.0386,537.541-.0776v2.4443c-344.6934.042-536.6104.0728-537.4971.0776-.333.0093-.7207-.0137-1.0928-.062-.9502-.188-1.7959-.459-2.5967-.8193-3.6777-1.6509-5.5625-4.8491-6.1816-5.8999-2.0127-3.416-3.7832-9.2778-5.4951-14.9468-1.2402-4.104-2.9043-9.6143-3.9551-10.9458-1.5127,1.7964-3.9043,11.2988-5.8477,19.0142-4.7402,18.8271-7.9658,30.2588-12.7861,30.2637h-.0029ZM343.1572,590.0965h0Z"/>
  <g>
    <g>
      <path class="cls-1" d="M179.6371,543.5562c5.5801-5.492,16.1726-14.5018,32.062-20.424,14.5823-5.435,27.3757-5.9401,34.9944-5.6702-5.6992,5.3943-15.8314,13.6474-30.6171,19.4696-15.163,5.9708-28.5253,6.7489-36.4393,6.6246Z"/>
      <path class="cls-1" d="M261.6098,438.8297c2.1448,7.6173,4.946,21.3773,2.3353,38.2657-2.3959,15.499-8.3229,26.9898-12.3645,33.5508-1.9977-7.6737-4.3495-20.6553-2.1997-36.5244,2.2047-16.2741,8.1704-28.3997,12.2288-35.292Z"/>
      <path class="cls-1" d="M311.3249,564.3858c-7.714-2.0514-21.0798-6.6979-34.2765-17.7041-12.111-10.1007-18.8887-21.2285-22.41-28.1586,7.6847,2.2095,20.1401,6.8481,32.7011,16.9243,12.8816,10.3333,20.1868,21.8226,23.9853,28.9385Z"/>
      <circle class="cls-1" cx="251.0055" cy="515.5985" r="7.6094"/>
      <polygon class="cls-1" points="246.5239 513.668 240.6965 645.864 261.7558 645.864 254.3706 513.668 246.5239 513.668"/>
    </g>
    <g>
      <path class="cls-1" d="M179.6371,543.5562c5.5801-5.492,16.1726-14.5018,32.062-20.424,14.5823-5.435,27.3757-5.9401,34.9944-5.6702-5.6992,5.3943-15.8314,13.6474-30.6171,19.4696-15.163,5.9708-28.5253,6.7489-36.4393,6.6246Z"/>
      <path class="cls-1" d="M261.6098,438.8297c2.1448,7.6173,4.946,21.3773,2.3353,38.2657-2.3959,15.499-8.3229,26.9898-12.3645,33.5508-1.9977-7.6737-4.3495-20.6553-2.1997-36.5244,2.2047-16.2741,8.1704-28.3997,12.2288-35.292Z"/>
      <path class="cls-1" d="M311.3249,564.3858c-7.714-2.0514-21.0798-6.6979-34.2765-17.7041-12.111-10.1007-18.8887-21.2285-22.41-28.1586,7.6847,2.2095,20.1401,6.8481,32.7011,16.9243,12.8816,10.3333,20.1868,21.8226,23.9853,28.9385Z"/>
      <circle class="cls-1" cx="251.0055" cy="515.5985" r="7.6094"/>
      <polygon class="cls-1" points="246.5239 513.668 240.6965 645.864 261.7558 645.864 254.3706 513.668 246.5239 513.668"/>
    </g>
  </g>
  <path class="cls-1" d="M389.4613,535.2543h52.8642v15.8142h-36.9373v14.4583h30.3869v13.6677h-30.3869v30.6123h-15.9269v-74.5525Z"/>
  <path class="cls-1" d="M448.6504,535.2543h15.9269v74.5525h-15.9269v-74.5525Z"/>
  <path class="cls-1" d="M486.5482,607.2651c-4.7078-2.4454-8.4911-5.9297-11.353-10.448-2.8619-4.5183-4.2929-9.6754-4.2929-15.476,0-6.325,1.4114-11.7467,4.2374-16.265,2.8227-4.5183,6.5864-7.9259,11.2942-10.2242,4.7046-2.2951,9.8077-3.4451,15.3061-3.4451,5.2698,0,10.0919,1.0928,14.46,3.2769,4.3648,2.184,7.9226,5.3286,10.6735,9.432,2.7476,4.1051,4.3877,8.9436,4.9136,14.5155.1503,1.2055.2254,2.184.2254,2.9354,0,.6779-.0751,1.6956-.2254,3.0514h-45.8596c.526,3.9923,2.3719,7.2104,5.5344,9.6574,3.1625,2.447,6.7007,3.6705,10.6179,3.6705,3.009,0,5.7794-.6387,8.3016-1.9194,2.5222-1.2807,4.4628-3.0874,5.8186-5.4233l11.8594,5.9869c-2.6365,4.4448-6.2695,7.9471-10.8989,10.5052-4.6327,2.5614-9.7718,3.8421-15.4205,3.8421-5.4233,0-10.4872-1.2235-15.1918-3.6722ZM516.8763,575.8066c-.6763-3.4631-2.4666-6.2695-5.3645-8.4159-2.9011-2.1465-6.0833-3.2197-9.5463-3.2197-3.5382,0-6.7399,1.0553-9.6019,3.1641-2.8619,2.1089-4.6294,4.9692-5.309,8.5842l29.8217-.1127Z"/>
  <path class="cls-1" d="M548.2792,580.8901l-20.3341-28.3531h15.9269l13.2185,18.5258,12.9898-18.5258h15.8125l-19.88,28.3531,21.2358,28.9167h-15.9269l-14.2313-20.1071-14.2345,20.1071h-15.9269l21.3502-28.9167Z"/>
  <rect class="cls-1" x="594.1388" y="552.537" width="15.8125" height="57.2698"/>
  <path class="cls-1" d="M677.1056,565.5268c-2.8227-4.5183-6.6844-8.001-11.5784-10.448-4.894-2.447-10.3925-3.6722-16.4921-3.6722-5.9493,0-11.3693,1.2251-16.2634,3.6722-4.8973,2.447-8.7557,5.9297-11.5784,10.448-2.826,4.5183-4.2374,9.7538-4.2374,15.7015,0,5.7239,1.4506,10.8433,4.3484,15.3617,2.8979,4.5183,6.7955,8.0402,11.6928,10.5624,4.894,2.5238,10.2389,3.7849,16.038,3.7849,6.2499,0,11.8235-1.2611,16.7208-3.7849,4.894-2.5222,8.7132-6.044,11.4641-10.5624,2.7476-4.5183,4.123-9.6378,4.123-15.3617,0-5.9477-1.4114-11.1831-4.2374-15.7015ZM663.2141,589.8696c-1.4702,2.5238-3.4467,4.5004-5.933,5.9297-2.483,1.4326-5.2698,2.1465-8.3571,2.1465-2.9371,0-5.6487-.7335-8.135-2.202-2.483-1.4685-4.4432-3.4631-5.8709-5.9869-1.4342-2.5222-2.1465-5.3269-2.1465-8.4159,0-4.9692,1.542-9.0367,4.6294-12.1992,3.0874-3.1625,6.9654-4.7438,11.634-4.7438,3.0874,0,5.8742.7335,8.3604,2.202,2.4862,1.4685,4.4432,3.5023,5.8742,6.0996,1.4277,2.5989,2.1465,5.4788,2.1465,8.6414s-.7351,6.0065-2.202,8.5286Z"/>
  <path class="cls-1" d="M687.668,552.537h15.9269v13.555c1.431-4.5918,4.2537-8.1889,8.4715-10.7878,4.2178-2.5973,8.8504-3.8976,13.8948-3.8976,5.1195,0,9.7325,1.2055,13.836,3.615,4.1067,2.4111,7.3443,5.8742,9.7162,10.3925,2.3719,4.5183,3.5578,9.8665,3.5578,16.0396v28.3531h-15.8125v-28.4658c0-5.1962-1.5453-9.3193-4.6327-12.3691s-6.9654-4.5739-11.634-4.5739c-4.7438,0-8.7361,1.5241-11.9737,4.5739-3.2409,3.0498-4.8581,7.1728-4.8581,12.3691v28.4658h-16.4921v-57.2698Z"/>
  <rect class="cls-1" x="759.9613" y="552.537" width="15.8125" height="57.2698"/>
  <path class="cls-1" d="M594.1388,535.2543h8.6375c3.9627,0,7.175,3.2124,7.175,7.175v4.5025h-15.8125v-11.6775Z"/>
  <path class="cls-1" d="M759.9613,535.2543h8.6375c3.9627,0,7.175,3.2124,7.175,7.175v4.5025h-15.8125v-11.6775Z"/>
  <path class="cls-1" d="M798.8164,607.1523c-4.8973-2.5222-8.7949-6.044-11.6928-10.5624-2.8979-4.5183-4.3484-9.6378-4.3484-15.3617,0-5.9477,1.4114-11.1831,4.2374-15.7015,2.8227-4.5183,6.6811-8.001,11.5784-10.448,4.894-2.447,10.3141-3.6722,16.2634-3.6722,6.8543,0,12.9539,1.5649,18.302,4.6882,5.3449,3.1266,9.1477,7.3247,11.4085,12.5945l-14.6854,5.4233c-1.2807-2.9371-3.2769-5.291-5.9885-7.0601-2.7084-1.7691-5.7239-2.6545-9.0367-2.6545-3.0122,0-5.7598.7335-8.246,2.202-2.483,1.4685-4.4432,3.4843-5.8709,6.044-1.4342,2.5597-2.1465,5.4609-2.1465,8.6969,0,3.089.7122,5.9134,2.1465,8.4715,1.4277,2.5614,3.3683,4.5575,5.8154,5.9869,2.447,1.4326,5.1783,2.1465,8.1905,2.1465,3.3879,0,6.4394-.9033,9.1477-2.71,2.7117-1.8083,4.747-4.1802,6.0996-7.1173l14.6854,5.4217c-2.4111,5.3482-6.2499,9.5839-11.5196,12.7088-5.273,3.1249-11.3726,4.6882-18.302,4.6882-5.799,0-11.1439-1.2611-16.038-3.7849Z"/>
  <path class="cls-1" d="M864.1607,608.451c-3.9531-1.6548-7.1352-4.0658-9.5431-7.2284-2.4111-3.1641-3.6166-6.8918-3.6166-11.1831h14.46c.3006,3.089,1.4669,5.4217,3.5023,7.0029,2.0321,1.5813,4.5902,2.3719,7.6808,2.3719,2.4078,0,4.4399-.5815,6.0996-1.7511,1.6531-1.1663,2.483-2.6904,2.483-4.5739,0-2.0337-.7318-3.5578-2.202-4.5755-1.4669-1.0161-3.9368-1.8246-7.3999-2.4291-8.2068-.9768-14.3456-2.71-18.4098-5.1946-4.0675-2.4862-6.0996-6.5129-6.0996-12.0865,0-3.4631.9965-6.5129,2.9926-9.151,1.9929-2.6349,4.7601-4.667,8.3016-6.0996,3.5382-1.4293,7.5698-2.1465,12.0881-2.1465,7.377,0,13.4407,1.7903,18.1844,5.3661,4.7438,3.5774,7.23,8.6806,7.4554,15.3061h-14.4567c-.1536-2.7117-1.2251-4.894-3.2213-6.5521-1.9962-1.6548-4.5739-2.4846-7.7364-2.4846-2.4862,0-4.4824.6207-5.9885,1.8639-1.5061,1.2415-2.2575,2.8423-2.2575,4.8009.0751,1.9586.9017,3.5202,2.4862,4.6866,1.5813,1.1696,4.2145,2.0909,7.9063,2.7688,6.0244,1.0553,10.6343,2.1448,13.836,3.2752,3.2017,1.1288,5.6095,2.7492,7.23,4.8565,1.6172,2.1105,2.4274,5.046,2.4274,8.8112,0,5.3482-2.1269,9.4892-6.3806,12.4262-4.257,2.9371-9.8469,4.4056-16.773,4.4056-4.747,0-9.0955-.8298-13.0486-2.4862Z"/>
</svg>